<?xml version="1.0" encoding="utf-8" standalone="no"?>
<!DOCTYPE svg PUBLIC "-//W3C//DTD SVG 20010904//EN"
    "http://www.w3.org/TR/2001/REC-SVG-20010904/DTD/svg10.dtd">
<svg xmlns="http://www.w3.org/2000/svg"
     xmlns:xlink="http://www.w3.org/1999/xlink" xml:space="preserve" width="175" height="175" viewBox="0 0 175 175">
    <defs>
        <pattern id="muster" patternUnits="userSpaceOnUse" width="7" height="7" x="0" y="0">
            <radialGradient id="SVGID_4_" cx="2.5" cy="2.5" r="2.5" gradientUnits="userSpaceOnUse">
                <stop  offset="0" style="stop-color:#67B32E"/>
                <stop  offset="1" style="stop-color:#527424"/>
            </radialGradient>
            <circle fill="url(#SVGID_4_)" cx="2.5" cy="2.5" r="2.5"/>
        </pattern>
    </defs>
    <polygon points="0 0, 175 0, 175 7, 168 7, 168 14, 161 14, 161 21, 154 21, 154 28, 147 28, 147 35, 140 35, 140 42, 133 42, 133 49, 126 49, 126 56, 119 56, 119 63, 112 63, 112 70, 105 70, 105 77, 98 77, 98 84, 91 84, 91 91, 84 91, 84 98, 77 98, 77 105, 70 105, 70 112, 63 112, 63 119, 56 119, 56 126, 49 126, 49 133, 42 133, 42 140, 35 140, 35 147, 28 147, 28 154, 21 154, 21 161, 14 161, 14 168, 7 168, 7 175, 0 175" fill="url(#muster)" />
</svg>