<?xml version="1.0" encoding="utf-8"?>
<!-- Generator: Adobe Illustrator 15.0.2, SVG Export Plug-In . SVG Version: 6.00 Build 0)  -->
<!DOCTYPE svg PUBLIC "-//W3C//DTD SVG 1.1//EN" "http://www.w3.org/Graphics/SVG/1.1/DTD/svg11.dtd">
<svg version="1.1" id="Ebene_1" xmlns="http://www.w3.org/2000/svg" xmlns:xlink="http://www.w3.org/1999/xlink" x="0px" y="0px"
	 width="60px" height="130px" viewBox="0 0 60 130" enable-background="new 0 0 60 130" xml:space="preserve">
<linearGradient id="SVGID_1_" gradientUnits="userSpaceOnUse" x1="271.082" y1="-358.397" x2="271.082" y2="-329.272" gradientTransform="matrix(1 0 0 -1 -257.5 -249)">
	<stop  offset="0" style="stop-color:#767676"/>
	<stop  offset="1" style="stop-color:#8C8C8C"/>
</linearGradient>
<path fill="url(#SVGID_1_)" d="M15.625,101.987L15.625,101.987c2.844-0.602,5.108-3.336,5.108-3.336
	c7.31-7.521,6.509-13.168,6.297-15.51h-3.13l0.01,2.424l0.99,0.01c0.381,7.148-6.748,12.334-6.615,12.167
	c1.997-2.523,2.719-8.104,3-12.15l0.129-2.538c0.053-1.672,0.029-2.781,0.029-2.781H5.722c0,0-0.024,1.109,0.029,2.781l0.129,2.538
	c0.282,4.046,1.003,9.627,3,12.15c0.133,0.167-6.996-5.019-6.615-12.167l0.99-0.01l0.01-2.424h-3.13
	c-0.212,2.342-1.013,7.988,6.297,15.51c0,0,2.265,2.734,5.108,3.336l0,0c0,0-1.49,5.818-7.521,6.316l0.07,1.064h0.693l0.002,0.029
	l8.798-0.014l8.798,0.014l0.002-0.029h0.693l0.07-1.064C17.114,107.806,15.625,101.987,15.625,101.987z"/>
<linearGradient id="SVGID_2_" gradientUnits="userSpaceOnUse" x1="301.8252" y1="-278.6494" x2="301.8252" y2="-249" gradientTransform="matrix(1 0 0 -1 -257.5 -249)">
	<stop  offset="0" style="stop-color:#767676"/>
	<stop  offset="1" style="stop-color:#8C8C8C"/>
</linearGradient>
<path fill="url(#SVGID_2_)" d="M44.325,0C36.15,0,29.5,6.651,29.5,14.825s6.651,14.825,14.825,14.825
	c8.173,0,14.824-6.651,14.824-14.825S52.499,0,44.325,0z M58.053,15.378c-0.109,2.749-1.021,5.35-2.653,7.565l-1.478-4.566
	L58.053,15.378z M50.423,2.75l0.195-0.13c2.185,1.131,4.023,2.825,5.336,4.915L51.198,7.48L50.423,2.75z M43.736,25.753l2.93,2.695
	c-2.646,0.386-3.883,0.454-6.312-0.383L43.736,25.753z M39.327,16.657l2.796-6.191l6.749,0.748l1.377,6.655l-5.898,4.433
	L39.327,16.657z M40.466,1.643l0.27,0.204l-1.707,5.139l-5.416-0.096l-0.146-0.461C35.238,4.145,37.714,2.452,40.466,1.643z
	 M34.953,18.061l-1.057,5.182l-0.387,0.044c-1.748-2.223-2.741-4.868-2.899-7.684L34.953,18.061z"/>
</svg>
