<?xml version="1.0" encoding="utf-8"?>
<!-- Generator: Adobe Illustrator 15.0.0, SVG Export Plug-In . SVG Version: 6.00 Build 0)  -->
<!DOCTYPE svg PUBLIC "-//W3C//DTD SVG 1.1//EN" "http://www.w3.org/Graphics/SVG/1.1/DTD/svg11.dtd">
<svg version="1.1" id="Ebene_1" xmlns="http://www.w3.org/2000/svg" xmlns:xlink="http://www.w3.org/1999/xlink" x="0px" y="0px"
	 width="93.54px" height="184.25px" viewBox="0 0 93.54 184.25" enable-background="new 0 0 93.54 184.25" xml:space="preserve">
<linearGradient id="SVGID_1_" gradientUnits="userSpaceOnUse" x1="59.4609" y1="166.1523" x2="82.2627" y2="166.1523">
	<stop  offset="0" style="stop-color:#B5B5B5"/>
	<stop  offset="1" style="stop-color:#F0F0F0"/>
</linearGradient>
<path fill="url(#SVGID_1_)" d="M78.436,155.203c2.543,2.147,3.98,5.661,3.814,9.146c-0.049,1.747-0.51,3.478-1.248,5.074
	c-0.766,1.599-1.828,3.004-3.158,4.232c-1.277,1.132-2.846,2.098-4.494,2.685c-1.662,0.571-3.43,0.86-5.174,0.73
	c-3.484-0.185-6.836-1.969-8.715-4.718c2.508,2.168,5.66,3.25,8.748,3.157c3.092-0.095,6.051-1.281,8.33-3.37
	c2.238-1.989,3.77-4.862,4.16-7.915C81.104,161.162,80.342,157.914,78.436,155.203z"/>
<g>
	<linearGradient id="SVGID_2_" gradientUnits="userSpaceOnUse" x1="4.7925" y1="155.9805" x2="87.5488" y2="155.9805">
		<stop  offset="0" style="stop-color:#B5B5B5"/>
		<stop  offset="1" style="stop-color:#F0F0F0"/>
	</linearGradient>
	<path fill="url(#SVGID_2_)" d="M81.125,147.682l-0.002,0.002c-0.004-0.006-0.021-0.021-0.025-0.024l-25.5-19.746l-0.26-0.202
		l-50.545,28.3v5.93l24.219,21.093l19.952-12.767c0.422,1.481,1.016,2.875,1.758,4.17c2.242,4.334,6.561,8.065,14.496,9.494
		c1.18,0.212,2.361,0.319,3.512,0.319c11.029,0,17.914-9.462,18.643-16.293c0.139-1.3,0.172-2.519,0.156-3.694
		c0.004-0.144,0.021-0.282,0.021-0.427C87.549,157.508,85.027,151.168,81.125,147.682z M28.292,181.081l-22.5-19.596v-3.325
		l22.5,19.523V181.081z M67.861,182.944c-7.076,0-12.977-3.463-16.15-8.818c-1.65-3.081-2.168-6.5-2.168-9.571v-0.911v-0.016
		l-0.77,0.506l-19.929,12.695L6.146,156.4l49.102-27.494l25.209,19.52l0.002,0.002c0.014,0.012,0.027,0.026,0.041,0.039
		c0.406,0.386,5.885,5.817,6.023,15.883C86.254,174.646,77.996,182.944,67.861,182.944z"/>
	<linearGradient id="SVGID_3_" gradientUnits="userSpaceOnUse" x1="45.2271" y1="144.9678" x2="64.3408" y2="144.9678">
		<stop  offset="0" style="stop-color:#95C11F"/>
		<stop  offset="0.2255" style="stop-color:#8FBD22"/>
		<stop  offset="0.5155" style="stop-color:#7DAF2A"/>
		<stop  offset="0.8393" style="stop-color:#609C32"/>
		<stop  offset="1" style="stop-color:#4D9036"/>
	</linearGradient>
	<polygon fill="url(#SVGID_3_)" points="45.227,141.145 59.269,152.357 64.341,148.656 50.656,137.578 	"/>
</g>
<linearGradient id="SVGID_4_" gradientUnits="userSpaceOnUse" x1="45.2275" y1="67.0635" x2="45.2275" y2="-4.882812e-04">
	<stop  offset="0" style="stop-color:#B5B5B5"/>
	<stop  offset="1" style="stop-color:#F0F0F0"/>
</linearGradient>
<path fill="url(#SVGID_4_)" d="M90.591,29.441l-0.4-0.425C84.312,22.786,70.583,8.263,70.052,7.943
	c-0.592-0.355-4.434-1.992-4.842-2.155l-0.387-0.153c-7.373-2.913-8.547-3.48-8.709-3.589c-0.253-0.142-5.323-2.199-10.921-2.038
	c-5.596-0.162-10.6,1.896-10.852,2.038c-0.162,0.109-1.336,0.676-8.709,3.589l-0.387,0.153c-0.408,0.163-4.25,1.8-4.842,2.155
	C19.872,8.263,6.143,22.786,0.265,29.016l-0.401,0.425l12.266,8.405l10.292-9.938l-0.353,3.571v35.584h22.906h0.504h22.906V31.479
	l-0.354-3.571l10.293,9.938L90.591,29.441z M44.994,1.006v0.005c0.067-0.002,0.133-0.001,0.199-0.002
	c0.067,0.001,0.133,0,0.199,0.002V1.006c5.012-0.083,9.744,1.662,10.146,1.858c0.099,0.066,0.312,0.179,0.842,0.416
	c-0.523,0.863-3.588,5.436-10.117,6.08c-6.788,0.672-11.421-5.519-11.911-6.205c0.332-0.153,0.486-0.238,0.564-0.291
	C35.318,2.668,39.985,0.922,44.994,1.006z M23.07,24.06c-0.104,0.841-0.217,1.607-0.297,2.119L12.022,36.56L1.394,29.277
	C9.065,21.148,20.324,9.278,20.918,8.801c0.06-0.035,0.167-0.09,0.31-0.159c0.894,1.097,3.442,4.415,3.355,6.515
	C24.477,17.7,23.252,22.58,23.07,24.06z M33.473,3.643c0.195,0.29,4.667,6.768,11.739,6.768c0.376,0,0.759-0.018,1.148-0.057
	C53.7,9.631,56.906,4.387,57.307,3.68c1.016,0.43,2.604,1.079,5.116,2.079l-1.639,7.277c0,0-0.953,6.147,1.908,11.341
	c3.641,6.607,2.756,27.346,3.104,31.268c0.295,3.321-2.583,8.809-3.475,10.418H45.479h-0.504H28.134
	c-0.892-1.609-3.771-7.097-3.476-10.418c0.349-3.922-0.536-24.661,3.104-31.268c2.862-5.194,1.908-11.341,1.908-11.341l-1.639-7.277
	L33.473,3.643z M67.682,26.179c-0.079-0.512-0.192-1.278-0.296-2.119c-0.184-1.48-1.408-6.36-1.514-8.903
	c-0.088-2.1,2.461-5.418,3.355-6.515c0.143,0.069,0.25,0.124,0.309,0.159C70.13,9.278,81.39,21.148,89.062,29.277L78.433,36.56
	L67.682,26.179z"/>
</svg>
