<?xml version="1.0" encoding="utf-8"?>
<!-- Generator: Adobe Illustrator 15.0.2, SVG Export Plug-In . SVG Version: 6.00 Build 0)  -->
<!DOCTYPE svg PUBLIC "-//W3C//DTD SVG 1.1//EN" "http://www.w3.org/Graphics/SVG/1.1/DTD/svg11.dtd">
<svg version="1.1" id="Ebene_1" xmlns="http://www.w3.org/2000/svg" xmlns:xlink="http://www.w3.org/1999/xlink" x="0px" y="0px"
	 width="201.26px" height="178.58px" viewBox="0 0 201.26 178.58" enable-background="new 0 0 201.26 178.58" xml:space="preserve">
<path fill="#EEEEEE" d="M200.152,60.612l-39.236-42.547l-0.843-0.596c-10.19-4.393-30.087-13.013-32.449-14.196
	c-2.166-1.083-17.077-2.475-27.016-2.386c-9.935-0.081-24.804,1.307-26.966,2.386c-2.367,1.183-22.263,9.803-32.453,14.196
	L1.109,60.612l23.194,31.166L46.69,67.06c-0.944,21.075-3.866,85.2-3.433,96.341c0.054,1.45,0.406,2.819,0.951,4.11
	c-0.004,0.229-0.008,0.383-0.008,0.383l0.17,0.07c0.704,1.484,1.721,2.838,3.047,4.018c3.929,3.492,10.252,5.287,18.342,5.287
	c1.578,0,3.222-0.066,4.923-0.201l30.253-0.07l29.452,0.062c1.744,0.139,3.423,0.209,5.031,0.209c8.184,0,14.498-1.795,18.424-5.287
	c1.322-1.18,2.34-2.533,3.047-4.018l0.17-0.07c0,0-0.004-0.154-0.008-0.383c0.546-1.291,0.897-2.66,0.951-4.11
	c0.434-11.142-2.834-75.483-3.777-96.559l22.922,24.687L200.152,60.612z"/>
<path fill="#333333" d="M201.157,60.753l-39.632-42.977l-0.852-0.602c-10.293-4.438-30.391-13.145-32.777-14.34
	c-2.188-1.094-17.25-2.5-27.289-2.41c-10.035-0.082-25.055,1.32-27.238,2.41c-2.391,1.195-22.488,9.902-32.781,14.34L0.104,60.753
	l24.32,32.68l21.48-23.899c-0.953,21.29-3.664,83.792-3.227,95.045c0.055,1.465,0.41,2.848,0.961,4.152
	c-0.004,0.23-0.008,0.387-0.008,0.387l0.172,0.07c0.711,1.5,1.738,2.867,3.078,4.059c3.969,3.527,10.355,5.34,18.527,5.34
	c1.594,0,3.254-0.066,4.973-0.203l30.559-0.07l29.75,0.062c1.762,0.141,3.457,0.211,5.082,0.211c8.266,0,14.645-1.812,18.609-5.34
	c1.336-1.191,2.363-2.559,3.078-4.059l0.172-0.07c0,0-0.004-0.156-0.008-0.387c0.551-1.305,0.906-2.688,0.961-4.152
	c0.438-11.254-2.273-73.756-3.227-95.045l21.484,23.899L201.157,60.753z M75.572,7.324c1.793-0.758,10.863-1.5,18.746-1.844
	l0.16,0.258c1.23-0.406,6.188-0.43,11.809-0.234c0.027,0.012,0.094,0.016,0.125,0.023l0.008-0.016
	c8.059,0.289,17.422,1.035,19.242,1.797c0.676,0.34,2.605,1.207,5.172,2.344c-3.953,4.629-14.242,14.492-30.203,14.977
	C84.67,24.144,74.377,14.281,70.428,9.652C72.982,8.519,74.9,7.66,75.572,7.324z M24.787,85.546L6.588,61.093l34.371-37.27
	c2.93,4.66,9.258,16.961,8.141,34.68L24.787,85.546z M130.889,173.385l-22.984-0.047v-0.039l-6.992,0.016l-7.559-0.016v0.039
	l-23.176,0.055c-4.898,0.387-9.164,0.168-12.66-0.59c-3.508-11.324-15.449-56.82,0.895-107.565
	c7.906-24.547,4.312-44.172,1.297-50.895c2.039-0.887,4.051-1.766,5.945-2.594c3.602,4.605,14.965,16.875,33.871,17.824v0.109
	c0.379,0,0.73-0.047,1.105-0.055c0.375,0.008,0.727,0.055,1.105,0.055v-0.109c18.902-0.949,30.27-13.219,33.875-17.824
	c1.895,0.828,3.906,1.707,5.941,2.594c-3.016,6.723-6.609,26.348,1.297,50.895c16.344,50.733,4.402,96.229,0.898,107.561
	C140.221,173.561,135.9,173.779,130.889,173.385z M152.162,58.503c-1.121-17.719,5.207-30.02,8.137-34.68l34.374,37.27
	l-18.202,24.453L152.162,58.503z"/>
</svg>
